<?xml version="1.0" encoding="utf-8"?>
<!-- Generator: Adobe Illustrator 26.3.1, SVG Export Plug-In . SVG Version: 6.00 Build 0)  -->
<svg version="1.1" id="Layer_1" xmlns="http://www.w3.org/2000/svg" xmlns:xlink="http://www.w3.org/1999/xlink" x="0px" y="0px"
	 viewBox="0 0 258 228.3" style="enable-background:new 0 0 258 228.3;" xml:space="preserve">
<style type="text/css">
	.st0{fill:none;stroke:#DC0A14;stroke-width:33.7325;stroke-linejoin:round;stroke-miterlimit:11.3386;}
	.st1{fill:#FFFFFF;}
	.st2{fill-opacity:0;}
	.st3{clip-path:url(#SVGID_00000121265569210941518930000002854123627647511742_);}
	.st4{clip-path:url(#SVGID_00000121244250942938001440000013657527230659540630_);fill:#FBFBFB;}
</style>
<g id="triangle" xmlns:sodipodi="http://sodipodi.sourceforge.net/DTD/sodipodi-0.dtd" xmlns:rdf="http://www.w3.org/1999/02/22-rdf-syntax-ns#" xmlns:cc="http://creativecommons.org/ns#" xmlns:dc="http://purl.org/dc/elements/1.1/" xmlns:svg="http://www.w3.org/2000/svg" xmlns:inkscape="http://www.inkscape.org/namespaces/inkscape">
	
		<sodipodi:namedview  bordercolor="#666666" borderopacity="1.0" id="base" inkscape:current-layer="layer1" inkscape:cx="113.92857" inkscape:cy="86.785714" inkscape:document-units="mm" inkscape:pagecheckerboard="0" inkscape:pageopacity="0.0" inkscape:pageshadow="2" inkscape:window-height="715" inkscape:window-maximized="1" inkscape:window-width="1366" inkscape:window-x="-8" inkscape:window-y="-8" inkscape:zoom="1.4" pagecolor="#ffffff" showgrid="false">
		</sodipodi:namedview>
	<g id="layer1" transform="translate(0,-216.463)" inkscape:groupmode="layer" inkscape:label="Layer 1">
		
			<path id="path814" inkscape:connector-curvature="0" inkscape:transform-center-y="4.393997" inkscape:transform-center-x="27.135595" sodipodi:nodetypes="cccc" class="st0" d="
			M239.6,426.3L128.9,234.6L18.3,426.3H239.6z"/>
		<path id="path818" inkscape:connector-curvature="0" sodipodi:nodetypes="cccc" class="st1" d="M230.1,420.8L128.9,245.7
			L27.8,420.8H230.1z"/>
	</g>
</g>
<g id="droplet-exclamation">
	<g id="droplet-exclamation-mark_00000057128650634175326880000011550215374757799313_">
		<g id="Layer_1_00000153666842103935427290000014552574563806549891_">
			<g>
				<g>
					
						<rect x="123" y="86.2" transform="matrix(0.713 -0.7012 0.7012 0.713 -35.6808 136.1469)" class="st2" width="50.9" height="50.9"/>
					<path d="M135.1,98.2c2.9-2.9,7.2-4.6,11.3-4.5c8.9,0.2,16,7.5,16,16.3V124c0,0.6-0.2,1.1-0.8,1.4c-0.4,0.3-1.1,0.7-1.4,0.7
						l-14.1-0.2c-8.9-0.2-15.9-7.5-16.1-16.3C130.4,105.1,132,101,135.1,98.2z"/>
				</g>
			</g>
		</g>
		<g id="Layer_2_00000028287278453544908450000004257871262796755631_">
			<g id="Artwork_1_00000070092885961572204030000001322296161948710020_">
				<g>
					<g>
						<g>
							<g>
								<g>
									<g>
										<defs>
											<rect id="SVGID_1_" x="143.6" y="99.3" width="5.6" height="21.3"/>
										</defs>
										<clipPath id="SVGID_00000102543538711390359860000012152471656115175046_">
											<use xlink:href="#SVGID_1_"  style="overflow:visible;"/>
										</clipPath>
										<g style="clip-path:url(#SVGID_00000102543538711390359860000012152471656115175046_);">
											<g>
												<g>
													<g>
														<g>
															<g>
																<defs>
																	
																		<rect id="SVGID_00000090289833400779684490000005710015760791525289_" x="143.6" y="99.3" width="5.6" height="21.3"/>
																</defs>
																<clipPath id="SVGID_00000009555933151755181390000005961377849547286703_">
																	<use xlink:href="#SVGID_00000090289833400779684490000005710015760791525289_"  style="overflow:visible;"/>
																</clipPath>
																<path style="clip-path:url(#SVGID_00000009555933151755181390000005961377849547286703_);fill:#FBFBFB;" d="
																	M146.2,120.4c-1.4,0-2.8-1.3-2.8-2.8c0-1.4,1.3-2.8,2.8-2.8c1.4,0,2.8,1.3,2.8,2.8
																	C148.9,119.2,148,120.4,146.2,120.4 M148.4,111.8c0,1.1-1.1,1.9-2.2,1.9c0,0,0,0-0.2,0c-1.1,0-1.8-0.9-1.8-1.9
																	l-0.8-9.7c0-0.8,0.2-1.4,0.8-1.9c0.3-0.8,1.1-0.9,1.8-0.9h0.2c1.4,0,2.5,1.1,2.8,2.5
																	C149.4,102.4,148.4,111.8,148.4,111.8"/>
															</g>
														</g>
													</g>
												</g>
											</g>
										</g>
									</g>
								</g>
							</g>
						</g>
					</g>
				</g>
			</g>
		</g>
	</g>
</g>
<g id="cars">
	<g id="car-side-svgrepo-com_00000163072439775678287380000004660083079820590238_">
		<path d="M130.9,144.7H129l-13.1-16.3c-1.5-1.8-3.7-2.9-6-2.9H84.2c-3.1,0-6,1.9-7.1,4.8L71.3,145c-3.3,0.9-5.8,3.8-5.8,7.4v13.4
			c0,1.1,0.9,1.9,1.9,1.9h5.8c0,6.4,5.2,11.5,11.5,11.5c6.4,0,11.5-5.2,11.5-11.5h15.4c0,6.4,5.2,11.5,11.5,11.5s11.5-5.2,11.5-11.5
			h5.8c1.1,0,1.9-0.9,1.9-1.9v-9.6C142.4,149.8,137.2,144.7,130.9,144.7z M84.8,173.5c-3.2,0-5.8-2.6-5.8-5.8s2.6-5.8,5.8-5.8
			s5.8,2.6,5.8,5.8C90.5,170.9,88,173.5,84.8,173.5z M93.4,144.7H79.6l4.6-11.5h9.2C93.4,133.2,93.4,144.7,93.4,144.7z M99.2,144.7
			v-11.5h10.7l9.2,11.5H99.2z M123.2,173.5c-3.2,0-5.8-2.6-5.8-5.8s2.6-5.8,5.8-5.8s5.8,2.6,5.8,5.8
			C128.9,170.9,126.4,173.5,123.2,173.5z"/>
	</g>
	<g id="car-side-svgrepo-com_00000047763694982345656310000007085903185829750693_">
		<path d="M214.8,178c-0.2-0.3-0.4-0.7-0.6-1c-0.2-0.4-0.4-0.7-0.6-1.1c-0.3-0.5-0.6-1-0.9-1.5c-0.1-0.2-0.2-0.4-0.4-0.6
			c-0.1-0.1-0.1-0.2-0.2-0.3c-0.6,0.2-1.2,0.3-1.8,0.3c-3.2,0-5.8-2.6-5.8-5.8c0-1.7,0.8-3.2,2-4.3c-0.3-0.5-0.6-1-0.9-1.6
			c-1.4-2.4-2.9-4.9-4.3-7.3c-1.4-2.4-2.8-4.9-4.2-7.4c-0.4-0.7-0.8-1.4-1.2-2.2c-0.1-0.1-0.1-0.2-0.2-0.3h-9.4v-11.5h2.7
			c0,0,0-0.1-0.1-0.1c-0.1-0.2-0.3-0.4-0.4-0.7c-0.6-1-1.2-2-1.8-3.1c-0.6-1-1.2-2-1.8-3.1c-0.1-0.3-0.3-0.5-0.4-0.8h-13.3
			c-3.1,0-6,1.9-7.1,4.8l-5.7,14.6c-3.3,0.9-5.8,3.8-5.8,7.4v13.4c0,1.1,0.9,1.9,1.9,1.9h5.8c0,6.4,5.2,11.5,11.5,11.5
			c6.4,0,11.5-5.2,11.5-11.5h15.4c0,6.4,5.2,11.5,11.5,11.5C211.9,179.2,213.5,178.8,214.8,178C215,178.3,214.9,178.1,214.8,178z
			 M172,173.8c-3.2,0-5.8-2.6-5.8-5.8s2.6-5.8,5.8-5.8s5.8,2.6,5.8,5.8S175.2,173.8,172,173.8z M180.7,145h-13.8l4.6-11.5h9.2V145z"
			/>
	</g>
</g>
<g id="pulse">
	<g id="pulse-svgrepo-com_00000026125511710446044620000014747468068383819670_">
		<path d="M149.7,159l-1-3.1h-0.6l-1,3.4l-0.7-2.5h-0.5l-0.7,2.2h-1.6v0.5h1.8l0.3-0.2l0.4-1.4l0.6,2.6h0.6l1.1-3.6l0.8,2.4l0.3,0.2
			h2V159H149.7z"/>
	</g>
</g>
</svg>
